# xmcd
#
# Track frame offsets: 
#        150
#        21220
#        39325
#        56602
#        73262
#        89665
#        107532
#        125545
#        141010
#        155240
#
# Disc length: 2286 seconds
#
# Revision: 0
# Processed by: cddbd v1.4PL0 Copyright (c) Steve Scherf et al.
# Submitted via: ExactAudioCopy v0.95a3
#
DISCID=8d08ec0a
DTITLE=Peter´s Deal - Too Much
DYEAR=1992
DGENRE=Blues
TTITLE0=Black Peter
TTITLE1=Don´t leave me
TTITLE2=Unsteady
TTITLE3=Better Day
TTITLE4=No more
TTITLE5=Old Gaarz
TTITLE6=Another Lovesong
TTITLE7=Too much
TTITLE8=Out of breath
TTITLE9=I´m on my way
EXTD=
EXTT0=Black Peter
EXTT1=
EXTT2=
EXTT3=
EXTT4=
EXTT5=
EXTT6=
EXTT7=
EXTT8=
EXTT9=
PLAYORDER=
